<svg xmlns="http://www.w3.org/2000/svg" width="3000" height="3136" viewBox="0 0 3000 3136"><rect x="0" y="0" width="3000" height="3136" fill="#f7f5f0"/>
<g id="L-floor">
<polygon points="470.8,596.5 1093.6,596.5 1093.6,567.3 1736.8,567.3 1736.8,1215.4 1999.0,1215.4 1999.0,1096.5 2647.1,1096.5 2647.1,2783.6 1999.0,2783.6 1999.0,2662.7 1005.9,2662.7 1005.9,2783.6 352.9,2783.6 352.9,1922.0 800.2,1922.0 800.2,892.8 470.8,892.8" fill="#efece5" stroke="#3b3833" stroke-width="2.0"/>
<polygon points="1122.8,352.9 1717.3,352.9 1717.3,596.5 1122.8,596.5" fill="#e8eef0" stroke="#3b3833" stroke-width="1.4"/>
</g>
<g id="L-ref">
<rect x="976.4" y="2428.8" width="44.8" height="175.4" fill="#b5342c" stroke="#7c1610" stroke-width="0.8"/>
<rect x="352.9" y="2370.3" width="44.6" height="233.9" fill="#b5342c" stroke="#7c1610" stroke-width="0.8"/>
<rect x="1998.8" y="1215.4" width="44.8" height="233.9" fill="#b5342c" stroke="#7c1610" stroke-width="0.8"/>
<rect x="1998.8" y="2428.8" width="44.8" height="233.9" fill="#b5342c" stroke="#7c1610" stroke-width="0.8"/>
<rect x="1691.8" y="975.7" width="44.8" height="239.8" fill="#b5342c" stroke="#7c1610" stroke-width="0.8"/>
</g>
<g id="L-furniture">
</g>
<g id="L-floor-walls">
<polygon points="1710.0,1230.0 1710.0,2648.1 1734.4,2648.1 1734.4,1230.0" fill="#2b2825" stroke="none" stroke-width="1.0"/>
<polygon points="2001.4,1230.0 2001.4,1734.3 2025.8,1734.3 2025.8,1230.0" fill="#2b2825" stroke="none" stroke-width="1.0"/>
<polygon points="1267.9,1734.3 1267.9,2648.1 1292.3,2648.1 1292.3,1734.3" fill="#2b2825" stroke="none" stroke-width="1.0"/>
<polygon points="1280.1,1746.5 2023.4,1746.5 2023.4,1722.1 1280.1,1722.1" fill="#2b2825" stroke="none" stroke-width="1.0"/>
<polygon points="814.9,1948.8 1280.1,1948.8 1280.1,1924.4 814.9,1924.4" fill="#2b2825" stroke="none" stroke-width="1.0"/>
<polygon points="979.1,1936.6 979.1,2648.1 1003.4,2648.1 1003.4,1936.6" fill="#2b2825" stroke="none" stroke-width="1.0"/>
<polygon points="1722.2,1948.8 2632.5,1948.8 2632.5,1924.4 1722.2,1924.4" fill="#2b2825" stroke="none" stroke-width="1.0"/>
<polygon points="991.3,2150.9 1280.1,2150.9 1280.1,2126.6 991.3,2126.6" fill="#2b2825" stroke="none" stroke-width="1.0"/>
<polygon points="1722.2,2150.9 2013.6,2150.9 2013.6,2126.6 1722.2,2126.6" fill="#2b2825" stroke="none" stroke-width="1.0"/>
<polygon points="2001.4,2138.8 2001.4,2648.1 2025.8,2648.1 2025.8,2138.8" fill="#2b2825" stroke="none" stroke-width="1.0"/>
<line x1="2028.2" y1="2754.3" x2="2617.9" y2="2754.3" stroke="#2e8b9a" stroke-width="3.0"/>
<line x1="2617.9" y1="1096.5" x2="2043.8" y2="1096.5" stroke="#2e8b9a" stroke-width="3.0"/>
<line x1="2043.8" y1="1125.8" x2="2617.9" y2="1125.8" stroke="#2e8b9a" stroke-width="3.0"/>
<line x1="397.7" y1="2754.3" x2="976.6" y2="2754.3" stroke="#2e8b9a" stroke-width="3.0"/>
<line x1="1061.4" y1="2633.5" x2="1207.6" y2="2633.5" stroke="#2e8b9a" stroke-width="3.0"/>
<line x1="1792.4" y1="2633.5" x2="1938.6" y2="2633.5" stroke="#2e8b9a" stroke-width="3.0"/>
<line x1="1363.6" y1="2633.5" x2="1636.4" y2="2633.5" stroke="#2e8b9a" stroke-width="3.0"/>
<line x1="1792.4" y1="1215.4" x2="1938.6" y2="1215.4" stroke="#2e8b9a" stroke-width="3.0"/>
<line x1="1938.6" y1="1244.7" x2="1792.4" y2="1244.7" stroke="#2e8b9a" stroke-width="3.0"/>
<line x1="1139.4" y1="625.8" x2="1692.0" y2="625.8" stroke="#2e8b9a" stroke-width="3.0"/>
<line x1="1692.0" y1="596.5" x2="1139.4" y2="596.5" stroke="#2e8b9a" stroke-width="3.0"/>
<line x1="829.5" y1="596.5" x2="1063.4" y2="596.5" stroke="#2e8b9a" stroke-width="3.0"/>
<line x1="1063.4" y1="625.8" x2="829.5" y2="625.8" stroke="#2e8b9a" stroke-width="3.0"/>
<line x1="397.7" y1="2771.9" x2="976.6" y2="2771.9" stroke="#2e8b9a" stroke-width="3.0"/>
<line x1="976.6" y1="2766.0" x2="397.7" y2="2766.0" stroke="#2e8b9a" stroke-width="3.0"/>
<line x1="1061.4" y1="2651.0" x2="1207.6" y2="2651.0" stroke="#2e8b9a" stroke-width="3.0"/>
<line x1="1207.6" y1="2645.2" x2="1061.4" y2="2645.2" stroke="#2e8b9a" stroke-width="3.0"/>
<line x1="1363.6" y1="2651.0" x2="1636.4" y2="2651.0" stroke="#2e8b9a" stroke-width="3.0"/>
<line x1="1636.4" y1="2645.2" x2="1363.6" y2="2645.2" stroke="#2e8b9a" stroke-width="3.0"/>
<line x1="1792.4" y1="2651.0" x2="1938.6" y2="2651.0" stroke="#2e8b9a" stroke-width="3.0"/>
<line x1="1938.6" y1="2645.2" x2="1792.4" y2="2645.2" stroke="#2e8b9a" stroke-width="3.0"/>
<line x1="2028.2" y1="2771.9" x2="2617.9" y2="2771.9" stroke="#2e8b9a" stroke-width="3.0"/>
<line x1="2617.9" y1="2766.0" x2="2028.2" y2="2766.0" stroke="#2e8b9a" stroke-width="3.0"/>
<line x1="2043.8" y1="1114.1" x2="2617.9" y2="1114.1" stroke="#2e8b9a" stroke-width="3.0"/>
<line x1="2617.9" y1="1108.2" x2="2043.8" y2="1108.2" stroke="#2e8b9a" stroke-width="3.0"/>
<line x1="1792.4" y1="1233.0" x2="1938.6" y2="1233.0" stroke="#2e8b9a" stroke-width="3.0"/>
<line x1="1938.6" y1="1227.1" x2="1792.4" y2="1227.1" stroke="#2e8b9a" stroke-width="3.0"/>
<line x1="829.5" y1="614.1" x2="1063.4" y2="614.1" stroke="#2e8b9a" stroke-width="3.0"/>
<line x1="1063.4" y1="608.2" x2="829.5" y2="608.2" stroke="#2e8b9a" stroke-width="3.0"/>
<line x1="1139.4" y1="614.1" x2="1692.0" y2="614.1" stroke="#2e8b9a" stroke-width="3.0"/>
<line x1="1692.0" y1="608.2" x2="1139.4" y2="608.2" stroke="#2e8b9a" stroke-width="3.0"/>
</g>
<g id="L-labels">
<text x="1420.1" y="463.0" font-family="Helvetica,Arial" font-size="15" fill="#1d1b18" font-weight="bold" letter-spacing="1.1" text-anchor="middle">BALCONY</text>
<text x="1420.1" y="507.9" font-family="Helvetica,Arial" font-size="9" fill="#6f6a61" font-weight="normal" letter-spacing="0" text-anchor="middle">outside the enclosure — 3.81 m2 (41 sq ft)</text>
<text x="1142.5" y="1418.7" font-family="Helvetica,Arial" font-size="15" fill="#1d1b18" font-weight="bold" letter-spacing="1.1" text-anchor="middle">LIVING / DINING</text>
<text x="1142.5" y="1465.5" font-family="Helvetica,Arial" font-size="9" fill="#6f6a61" font-weight="normal" letter-spacing="0" text-anchor="middle">the long room, with the foyer as its entrance </text>
<text x="1420.1" y="2279.5" font-family="Helvetica,Arial" font-size="15" fill="#1d1b18" font-weight="bold" letter-spacing="1.1" text-anchor="middle">KITCHEN</text>
<text x="1420.1" y="2326.3" font-family="Helvetica,Arial" font-size="9" fill="#6f6a61" font-weight="normal" letter-spacing="0" text-anchor="middle">7' x 11'11" plus the utility return</text>
<text x="580.0" y="2390.8" font-family="Helvetica,Arial" font-size="15" fill="#1d1b18" font-weight="bold" letter-spacing="1.1" text-anchor="middle">BEDROOM</text>
<text x="580.0" y="2437.6" font-family="Helvetica,Arial" font-size="9" fill="#6f6a61" font-weight="normal" letter-spacing="0" text-anchor="middle">10'0" x 13'6"</text>
<text x="2176.2" y="2391.8" font-family="Helvetica,Arial" font-size="15" fill="#1d1b18" font-weight="bold" letter-spacing="1.1" text-anchor="middle">M.BEDROOM 01</text>
<text x="2176.2" y="2438.5" font-family="Helvetica,Arial" font-size="9" fill="#6f6a61" font-weight="normal" letter-spacing="0" text-anchor="middle">10'0" x 13'6", with its own toilet</text>
<text x="2149.1" y="1528.7" font-family="Helvetica,Arial" font-size="15" fill="#1d1b18" font-weight="bold" letter-spacing="1.1" text-anchor="middle">M.BEDROOM 02</text>
<text x="2149.1" y="1575.4" font-family="Helvetica,Arial" font-size="9" fill="#6f6a61" font-weight="normal" letter-spacing="0" text-anchor="middle">10'0" x 13'6", with its own toilet</text>
<text x="1768.0" y="2387.9" font-family="Helvetica,Arial" font-size="15" fill="#1d1b18" font-weight="bold" letter-spacing="1.1" text-anchor="middle">TOILET 01</text>
<text x="1768.0" y="2421.0" font-family="Helvetica,Arial" font-size="10" fill="#2c5c61" font-weight="normal" letter-spacing="2" text-anchor="middle">MASTER</text>
<text x="1768.0" y="2450.2" font-family="Helvetica,Arial" font-size="9" fill="#6f6a61" font-weight="normal" letter-spacing="0" text-anchor="middle">4'6" x 8'1"</text>
<text x="1762.0" y="1467.3" font-family="Helvetica,Arial" font-size="15" fill="#1d1b18" font-weight="bold" letter-spacing="1.1" text-anchor="middle">TOILET 02</text>
<text x="1762.0" y="1500.4" font-family="Helvetica,Arial" font-size="10" fill="#2c5c61" font-weight="normal" letter-spacing="2" text-anchor="middle">MASTER</text>
<text x="1762.0" y="1529.6" font-family="Helvetica,Arial" font-size="9" fill="#6f6a61" font-weight="normal" letter-spacing="0" text-anchor="middle">4'6" x 8'0"</text>
<text x="1064.9" y="2388.1" font-family="Helvetica,Arial" font-size="15" fill="#1d1b18" font-weight="bold" letter-spacing="1.1" text-anchor="middle">TOILET</text>
<text x="1064.9" y="2421.2" font-family="Helvetica,Arial" font-size="10" fill="#2c5c61" font-weight="normal" letter-spacing="2" text-anchor="middle">COMMON</text>
<text x="1064.9" y="2450.4" font-family="Helvetica,Arial" font-size="9" fill="#6f6a61" font-weight="normal" letter-spacing="0" text-anchor="middle">4'6" x 8'1"</text>
<text x="1046.4" y="2031.4" font-family="Helvetica,Arial" font-size="15" fill="#1d1b18" font-weight="bold" letter-spacing="1.1" text-anchor="middle">PASSAGE</text>
<text x="1046.4" y="2078.1" font-family="Helvetica,Arial" font-size="9" fill="#6f6a61" font-weight="normal" letter-spacing="0" text-anchor="middle">4'6" x 2'11", between the bedroom and the comm</text>
</g>
<g id="L-title">
<text x="1500.0" y="167.7" font-family="Helvetica,Arial" font-size="22" fill="#1d1b18" font-weight="bold" letter-spacing="2" text-anchor="middle">EKTA — 14TH FLOOR, NEELDHARA</text>
<text x="1500.0" y="224.2" font-family="Helvetica,Arial" font-size="11" fill="#6f6a61" font-weight="normal" letter-spacing="1" text-anchor="middle">imported from the builder's DWG · 1073 sq ft RERA</text>
</g></svg>