<svg xmlns="http://www.w3.org/2000/svg" width="3000" height="3165" viewBox="0 0 3000 3165"><rect x="0" y="0" width="3000" height="3165" fill="#f7f5f0"/>
<g id="L-floor">
<polygon points="352.9,352.9 1005.9,352.9 1005.9,473.7 1999.0,473.7 1999.0,352.9 2647.1,352.9 2647.1,2039.9 1999.0,2039.9 1999.0,1921.0 1736.8,1921.0 1736.8,2812.8 1093.6,2812.8 1093.6,2539.9 470.8,2539.9 470.8,2243.6 800.2,2243.6 800.2,1214.4 352.9,1214.4" fill="#2b2825" stroke="#3b3833" stroke-width="2.0"/>
<polygon points="382.1,382.1 976.6,382.1 976.6,503.0 2028.2,503.0 2028.2,382.1 2617.9,382.1 2617.9,2010.7 2028.2,2010.7 2028.2,1891.8 1707.6,1891.8 1707.6,2539.9 1707.6,2783.6 1122.8,2783.6 1122.8,2539.9 1122.8,2510.7 500.1,2510.7 500.1,2272.9 829.5,2272.9 829.5,1185.2 382.1,1185.2" fill="#efece5" stroke="none" stroke-width="1.0"/>
</g>
<g id="L-ref">
<rect x="1999.0" y="473.7" width="44.8" height="233.9" fill="#b5342c" stroke="#7c1610" stroke-width="0.8"/>
<rect x="352.9" y="532.2" width="44.8" height="233.9" fill="#b5342c" stroke="#7c1610" stroke-width="0.8"/>
<rect x="976.6" y="532.2" width="44.8" height="175.4" fill="#b5342c" stroke="#7c1610" stroke-width="0.8"/>
<rect x="1999.0" y="1687.1" width="44.8" height="233.9" fill="#b5342c" stroke="#7c1610" stroke-width="0.8"/>
<rect x="1692.0" y="1921.0" width="44.8" height="239.8" fill="#b5342c" stroke="#7c1610" stroke-width="0.8"/>
</g>
<g id="L-furniture">
</g>
<g id="L-floor-walls">
<polygon points="979.1,367.5 979.1,1005.9 1003.4,1005.9 1003.4,367.5" fill="#2b2825" stroke="none" stroke-width="1.0"/>
<polygon points="979.1,1181.3 979.1,1199.8 1003.4,1199.8 1003.4,1181.3" fill="#2b2825" stroke="none" stroke-width="1.0"/>
<line x1="991.3" y1="1005.9" x2="1166.7" y2="1005.9" stroke="#8a8378" stroke-width="1.4"/>
<line x1="1166.7" y1="1005.9" x2="1165.2" y2="1028.8" stroke="#c3bcae" stroke-width="1.0"/>
<line x1="1165.2" y1="1028.8" x2="1160.7" y2="1051.3" stroke="#c3bcae" stroke-width="1.0"/>
<line x1="1160.7" y1="1051.3" x2="1153.3" y2="1073.0" stroke="#c3bcae" stroke-width="1.0"/>
<line x1="1153.3" y1="1073.0" x2="1143.2" y2="1093.6" stroke="#c3bcae" stroke-width="1.0"/>
<line x1="1143.2" y1="1093.6" x2="1130.4" y2="1112.7" stroke="#c3bcae" stroke-width="1.0"/>
<line x1="1130.4" y1="1112.7" x2="1115.3" y2="1129.9" stroke="#c3bcae" stroke-width="1.0"/>
<line x1="1115.3" y1="1129.9" x2="1098.1" y2="1145.1" stroke="#c3bcae" stroke-width="1.0"/>
<line x1="1098.1" y1="1145.1" x2="1079.0" y2="1157.8" stroke="#c3bcae" stroke-width="1.0"/>
<line x1="1079.0" y1="1157.8" x2="1058.4" y2="1168.0" stroke="#c3bcae" stroke-width="1.0"/>
<line x1="1058.4" y1="1168.0" x2="1036.7" y2="1175.3" stroke="#c3bcae" stroke-width="1.0"/>
<line x1="1036.7" y1="1175.3" x2="1014.2" y2="1179.8" stroke="#c3bcae" stroke-width="1.0"/>
<line x1="1014.2" y1="1179.8" x2="991.3" y2="1181.3" stroke="#c3bcae" stroke-width="1.0"/>
<polygon points="814.9,1212.0 991.3,1212.0 991.3,1187.6 814.9,1187.6" fill="#2b2825" stroke="none" stroke-width="1.0"/>
<polygon points="1276.3,488.4 1276.3,1199.8 1300.7,1199.8 1300.7,488.4" fill="#2b2825" stroke="none" stroke-width="1.0"/>
<polygon points="991.3,959.6 1054.6,959.6 1054.6,935.2 991.3,935.2" fill="#2b2825" stroke="none" stroke-width="1.0"/>
<polygon points="1191.1,959.6 1288.5,959.6 1288.5,935.2 1191.1,935.2" fill="#2b2825" stroke="none" stroke-width="1.0"/>
<line x1="1054.6" y1="947.4" x2="1054.6" y2="1083.8" stroke="#8a8378" stroke-width="1.4"/>
<line x1="1054.6" y1="1083.8" x2="1072.4" y2="1082.7" stroke="#c3bcae" stroke-width="1.0"/>
<line x1="1072.4" y1="1082.7" x2="1089.9" y2="1079.2" stroke="#c3bcae" stroke-width="1.0"/>
<line x1="1089.9" y1="1079.2" x2="1106.8" y2="1073.5" stroke="#c3bcae" stroke-width="1.0"/>
<line x1="1106.8" y1="1073.5" x2="1122.8" y2="1065.6" stroke="#c3bcae" stroke-width="1.0"/>
<line x1="1122.8" y1="1065.6" x2="1137.7" y2="1055.6" stroke="#c3bcae" stroke-width="1.0"/>
<line x1="1137.7" y1="1055.6" x2="1151.1" y2="1043.9" stroke="#c3bcae" stroke-width="1.0"/>
<line x1="1151.1" y1="1043.9" x2="1162.9" y2="1030.5" stroke="#c3bcae" stroke-width="1.0"/>
<line x1="1162.9" y1="1030.5" x2="1172.8" y2="1015.6" stroke="#c3bcae" stroke-width="1.0"/>
<line x1="1172.8" y1="1015.6" x2="1180.7" y2="999.6" stroke="#c3bcae" stroke-width="1.0"/>
<line x1="1180.7" y1="999.6" x2="1186.4" y2="982.7" stroke="#c3bcae" stroke-width="1.0"/>
<line x1="1186.4" y1="982.7" x2="1189.9" y2="965.2" stroke="#c3bcae" stroke-width="1.0"/>
<line x1="1189.9" y1="965.2" x2="1191.1" y2="947.4" stroke="#c3bcae" stroke-width="1.0"/>
<polygon points="983.8,1209.5 990.1,1214.3 996.5,1219.0 1002.9,1223.6 1009.3,1227.9 1015.8,1232.0 1022.2,1235.9 1028.7,1239.6 1035.1,1243.1 1041.6,1246.4 1048.0,1249.4 1058.4,1227.4 1052.4,1224.5 1046.5,1221.5 1040.5,1218.3 1034.6,1214.9 1028.7,1211.3 1022.7,1207.5 1016.7,1203.5 1010.8,1199.3 1004.8,1194.9 998.7,1190.2" fill="#2b2825" stroke="none" stroke-width="1.0"/>
<polygon points="1238.3,1246.3 1244.6,1243.1 1251.1,1239.6 1257.5,1235.9 1264.0,1232.0 1270.4,1227.9 1276.8,1223.6 1283.3,1219.0 1289.7,1214.3 1295.9,1209.5 1281.1,1190.2 1275.0,1194.9 1269.0,1199.3 1263.0,1203.5 1257.1,1207.5 1251.1,1211.3 1245.2,1214.9 1239.2,1218.3 1233.3,1221.5 1227.3,1224.6" fill="#2b2825" stroke="none" stroke-width="1.0"/>
<line x1="1059.4" y1="1241.1" x2="1226.6" y2="1238.4" stroke="#b0a897" stroke-width="1.4" stroke-dasharray="7 9"/>
<line x1="1059.4" y1="1241.1" x2="1070.0" y2="1248.8" stroke="#b0a897" stroke-width="1.0" stroke-dasharray="7 9"/>
<line x1="1070.0" y1="1248.8" x2="1080.5" y2="1255.4" stroke="#b0a897" stroke-width="1.0" stroke-dasharray="7 9"/>
<line x1="1080.5" y1="1255.4" x2="1091.1" y2="1261.0" stroke="#b0a897" stroke-width="1.0" stroke-dasharray="7 9"/>
<line x1="1091.1" y1="1261.0" x2="1101.6" y2="1265.5" stroke="#b0a897" stroke-width="1.0" stroke-dasharray="7 9"/>
<line x1="1101.6" y1="1265.5" x2="1112.1" y2="1269.0" stroke="#b0a897" stroke-width="1.0" stroke-dasharray="7 9"/>
<line x1="1112.1" y1="1269.0" x2="1122.6" y2="1271.5" stroke="#b0a897" stroke-width="1.0" stroke-dasharray="7 9"/>
<line x1="1122.6" y1="1271.5" x2="1133.1" y2="1272.9" stroke="#b0a897" stroke-width="1.0" stroke-dasharray="7 9"/>
<line x1="1133.1" y1="1272.9" x2="1143.5" y2="1273.2" stroke="#b0a897" stroke-width="1.0" stroke-dasharray="7 9"/>
<line x1="1143.5" y1="1273.2" x2="1154.0" y2="1272.5" stroke="#b0a897" stroke-width="1.0" stroke-dasharray="7 9"/>
<line x1="1154.0" y1="1272.5" x2="1164.4" y2="1270.8" stroke="#b0a897" stroke-width="1.0" stroke-dasharray="7 9"/>
<line x1="1164.4" y1="1270.8" x2="1174.8" y2="1268.0" stroke="#b0a897" stroke-width="1.0" stroke-dasharray="7 9"/>
<line x1="1174.8" y1="1268.0" x2="1185.2" y2="1264.2" stroke="#b0a897" stroke-width="1.0" stroke-dasharray="7 9"/>
<line x1="1185.2" y1="1264.2" x2="1195.6" y2="1259.3" stroke="#b0a897" stroke-width="1.0" stroke-dasharray="7 9"/>
<line x1="1195.6" y1="1259.3" x2="1205.9" y2="1253.4" stroke="#b0a897" stroke-width="1.0" stroke-dasharray="7 9"/>
<line x1="1205.9" y1="1253.4" x2="1216.3" y2="1246.4" stroke="#b0a897" stroke-width="1.0" stroke-dasharray="7 9"/>
<line x1="1216.3" y1="1246.4" x2="1226.6" y2="1238.4" stroke="#b0a897" stroke-width="1.0" stroke-dasharray="7 9"/>
<polygon points="1280.9,1209.4 1290.1,1216.6 1299.3,1223.6 1308.6,1230.3 1317.8,1236.7 1327.1,1242.8 1336.4,1248.6 1345.7,1254.1 1355.0,1259.3 1364.3,1264.1 1373.7,1268.7 1383.0,1273.0 1392.2,1276.8 1401.7,1254.4 1392.8,1250.6 1384.1,1246.7 1375.3,1242.4 1366.6,1237.8 1357.8,1233.0 1349.0,1227.8 1340.3,1222.3 1331.5,1216.5 1322.7,1210.4 1313.8,1204.0 1305.0,1197.4 1296.1,1190.3" fill="#2b2825" stroke="none" stroke-width="1.0"/>
<polygon points="1627.9,1272.9 1637.1,1268.7 1646.4,1264.1 1655.7,1259.3 1665.0,1254.1 1674.3,1248.6 1683.6,1242.8 1692.9,1236.7 1702.1,1230.3 1711.4,1223.6 1720.6,1216.6 1729.8,1209.4 1714.6,1190.3 1705.7,1197.4 1696.9,1204.0 1688.1,1210.4 1679.3,1216.5 1670.5,1222.3 1661.7,1227.8 1652.9,1233.0 1644.1,1237.8 1635.4,1242.4 1626.7,1246.7 1617.8,1250.7" fill="#2b2825" stroke="none" stroke-width="1.0"/>
<line x1="1406.0" y1="1269.1" x2="1613.8" y2="1265.6" stroke="#b0a897" stroke-width="1.4" stroke-dasharray="7 9"/>
<line x1="1406.0" y1="1269.1" x2="1419.1" y2="1278.6" stroke="#b0a897" stroke-width="1.0" stroke-dasharray="7 9"/>
<line x1="1419.1" y1="1278.6" x2="1432.3" y2="1286.9" stroke="#b0a897" stroke-width="1.0" stroke-dasharray="7 9"/>
<line x1="1432.3" y1="1286.9" x2="1445.4" y2="1293.8" stroke="#b0a897" stroke-width="1.0" stroke-dasharray="7 9"/>
<line x1="1445.4" y1="1293.8" x2="1458.4" y2="1299.4" stroke="#b0a897" stroke-width="1.0" stroke-dasharray="7 9"/>
<line x1="1458.4" y1="1299.4" x2="1471.5" y2="1303.7" stroke="#b0a897" stroke-width="1.0" stroke-dasharray="7 9"/>
<line x1="1471.5" y1="1303.7" x2="1484.6" y2="1306.8" stroke="#b0a897" stroke-width="1.0" stroke-dasharray="7 9"/>
<line x1="1484.6" y1="1306.8" x2="1497.6" y2="1308.5" stroke="#b0a897" stroke-width="1.0" stroke-dasharray="7 9"/>
<line x1="1497.6" y1="1308.5" x2="1510.6" y2="1308.9" stroke="#b0a897" stroke-width="1.0" stroke-dasharray="7 9"/>
<line x1="1510.6" y1="1308.9" x2="1523.6" y2="1308.1" stroke="#b0a897" stroke-width="1.0" stroke-dasharray="7 9"/>
<line x1="1523.6" y1="1308.1" x2="1536.5" y2="1305.9" stroke="#b0a897" stroke-width="1.0" stroke-dasharray="7 9"/>
<line x1="1536.5" y1="1305.9" x2="1549.4" y2="1302.4" stroke="#b0a897" stroke-width="1.0" stroke-dasharray="7 9"/>
<line x1="1549.4" y1="1302.4" x2="1562.4" y2="1297.7" stroke="#b0a897" stroke-width="1.0" stroke-dasharray="7 9"/>
<line x1="1562.4" y1="1297.7" x2="1575.2" y2="1291.6" stroke="#b0a897" stroke-width="1.0" stroke-dasharray="7 9"/>
<line x1="1575.2" y1="1291.6" x2="1588.1" y2="1284.2" stroke="#b0a897" stroke-width="1.0" stroke-dasharray="7 9"/>
<line x1="1588.1" y1="1284.2" x2="1601.0" y2="1275.6" stroke="#b0a897" stroke-width="1.0" stroke-dasharray="7 9"/>
<line x1="1601.0" y1="1275.6" x2="1613.8" y2="1265.6" stroke="#b0a897" stroke-width="1.0" stroke-dasharray="7 9"/>
<polygon points="1710.0,488.4 1710.0,616.0 1734.4,616.0 1734.4,488.4" fill="#2b2825" stroke="none" stroke-width="1.0"/>
<polygon points="1710.0,772.0 1710.0,1199.8 1734.4,1199.8 1734.4,772.0" fill="#2b2825" stroke="none" stroke-width="1.0"/>
<line x1="1722.2" y1="616.0" x2="1878.1" y2="616.0" stroke="#8a8378" stroke-width="1.4"/>
<line x1="1878.1" y1="616.0" x2="1876.8" y2="636.4" stroke="#c3bcae" stroke-width="1.0"/>
<line x1="1876.8" y1="636.4" x2="1872.8" y2="656.4" stroke="#c3bcae" stroke-width="1.0"/>
<line x1="1872.8" y1="656.4" x2="1866.3" y2="675.7" stroke="#c3bcae" stroke-width="1.0"/>
<line x1="1866.3" y1="675.7" x2="1857.3" y2="694.0" stroke="#c3bcae" stroke-width="1.0"/>
<line x1="1857.3" y1="694.0" x2="1845.9" y2="711.0" stroke="#c3bcae" stroke-width="1.0"/>
<line x1="1845.9" y1="711.0" x2="1832.5" y2="726.3" stroke="#c3bcae" stroke-width="1.0"/>
<line x1="1832.5" y1="726.3" x2="1817.1" y2="739.7" stroke="#c3bcae" stroke-width="1.0"/>
<line x1="1817.1" y1="739.7" x2="1800.2" y2="751.1" stroke="#c3bcae" stroke-width="1.0"/>
<line x1="1800.2" y1="751.1" x2="1781.9" y2="760.1" stroke="#c3bcae" stroke-width="1.0"/>
<line x1="1781.9" y1="760.1" x2="1762.6" y2="766.7" stroke="#c3bcae" stroke-width="1.0"/>
<line x1="1762.6" y1="766.7" x2="1742.6" y2="770.6" stroke="#c3bcae" stroke-width="1.0"/>
<line x1="1742.6" y1="770.6" x2="1722.2" y2="772.0" stroke="#c3bcae" stroke-width="1.0"/>
<polygon points="2001.4,488.4 2001.4,1199.8 2025.8,1199.8 2025.8,488.4" fill="#2b2825" stroke="none" stroke-width="1.0"/>
<polygon points="1722.2,1212.0 2013.6,1212.0 2013.6,1187.6 1722.2,1187.6" fill="#2b2825" stroke="none" stroke-width="1.0"/>
<polygon points="1713.1,1191.7 1707.9,1197.5 1702.9,1203.4 1698.1,1209.3 1693.4,1215.3 1689.0,1221.2 1684.9,1227.2 1680.9,1233.2 1677.2,1239.0 1697.9,1251.9 1701.4,1246.4 1705.0,1240.9 1708.8,1235.5 1712.9,1230.0 1717.1,1224.5 1721.6,1219.0 1726.3,1213.5 1731.3,1207.9" fill="#2b2825" stroke="none" stroke-width="1.0"/>
<polygon points="1677.2,1434.5 1680.9,1440.4 1684.9,1446.3 1689.0,1452.3 1693.4,1458.2 1698.1,1464.2 1702.9,1470.1 1707.9,1476.0 1713.1,1481.8 1731.3,1465.6 1726.3,1460.0 1721.6,1454.5 1717.1,1449.0 1712.9,1443.5 1708.8,1438.0 1705.0,1432.6 1701.4,1427.1 1697.9,1421.6" fill="#2b2825" stroke="none" stroke-width="1.0"/>
<line x1="1684.2" y1="1251.2" x2="1684.2" y2="1422.3" stroke="#b0a897" stroke-width="1.4" stroke-dasharray="7 9"/>
<line x1="1684.2" y1="1251.2" x2="1676.2" y2="1261.9" stroke="#b0a897" stroke-width="1.0" stroke-dasharray="7 9"/>
<line x1="1676.2" y1="1261.9" x2="1669.2" y2="1272.6" stroke="#b0a897" stroke-width="1.0" stroke-dasharray="7 9"/>
<line x1="1669.2" y1="1272.6" x2="1663.3" y2="1283.3" stroke="#b0a897" stroke-width="1.0" stroke-dasharray="7 9"/>
<line x1="1663.3" y1="1283.3" x2="1658.5" y2="1294.0" stroke="#b0a897" stroke-width="1.0" stroke-dasharray="7 9"/>
<line x1="1658.5" y1="1294.0" x2="1654.8" y2="1304.7" stroke="#b0a897" stroke-width="1.0" stroke-dasharray="7 9"/>
<line x1="1654.8" y1="1304.7" x2="1652.1" y2="1315.4" stroke="#b0a897" stroke-width="1.0" stroke-dasharray="7 9"/>
<line x1="1652.1" y1="1315.4" x2="1650.5" y2="1326.1" stroke="#b0a897" stroke-width="1.0" stroke-dasharray="7 9"/>
<line x1="1650.5" y1="1326.1" x2="1650.0" y2="1336.8" stroke="#b0a897" stroke-width="1.0" stroke-dasharray="7 9"/>
<line x1="1650.0" y1="1336.8" x2="1650.5" y2="1347.5" stroke="#b0a897" stroke-width="1.0" stroke-dasharray="7 9"/>
<line x1="1650.5" y1="1347.5" x2="1652.1" y2="1358.1" stroke="#b0a897" stroke-width="1.0" stroke-dasharray="7 9"/>
<line x1="1652.1" y1="1358.1" x2="1654.8" y2="1368.8" stroke="#b0a897" stroke-width="1.0" stroke-dasharray="7 9"/>
<line x1="1654.8" y1="1368.8" x2="1658.5" y2="1379.5" stroke="#b0a897" stroke-width="1.0" stroke-dasharray="7 9"/>
<line x1="1658.5" y1="1379.5" x2="1663.3" y2="1390.2" stroke="#b0a897" stroke-width="1.0" stroke-dasharray="7 9"/>
<line x1="1663.3" y1="1390.2" x2="1669.2" y2="1400.9" stroke="#b0a897" stroke-width="1.0" stroke-dasharray="7 9"/>
<line x1="1669.2" y1="1400.9" x2="1676.2" y2="1411.6" stroke="#b0a897" stroke-width="1.0" stroke-dasharray="7 9"/>
<line x1="1676.2" y1="1411.6" x2="1684.2" y2="1422.3" stroke="#b0a897" stroke-width="1.0" stroke-dasharray="7 9"/>
<polygon points="2004.5,1191.7 1999.4,1197.5 1994.3,1203.4 1989.5,1209.3 1984.9,1215.3 1980.5,1221.2 1976.3,1227.2 1972.3,1233.2 1968.6,1239.0 1989.3,1251.9 1992.8,1246.4 1996.4,1240.9 2000.2,1235.5 2004.3,1230.0 2008.5,1224.5 2013.0,1219.0 2017.7,1213.5 2022.7,1207.9" fill="#2b2825" stroke="none" stroke-width="1.0"/>
<polygon points="1968.6,1434.5 1972.3,1440.4 1976.3,1446.3 1980.5,1452.3 1984.9,1458.2 1989.5,1464.2 1994.3,1470.1 1999.4,1476.0 2004.5,1481.8 2022.7,1465.6 2017.7,1460.0 2013.0,1454.5 2008.5,1449.0 2004.3,1443.5 2000.2,1438.0 1996.4,1432.6 1992.8,1427.1 1989.3,1421.6" fill="#2b2825" stroke="none" stroke-width="1.0"/>
<line x1="1975.6" y1="1251.2" x2="1975.6" y2="1422.3" stroke="#b0a897" stroke-width="1.4" stroke-dasharray="7 9"/>
<line x1="1975.6" y1="1251.2" x2="1967.6" y2="1261.9" stroke="#b0a897" stroke-width="1.0" stroke-dasharray="7 9"/>
<line x1="1967.6" y1="1261.9" x2="1960.6" y2="1272.6" stroke="#b0a897" stroke-width="1.0" stroke-dasharray="7 9"/>
<line x1="1960.6" y1="1272.6" x2="1954.7" y2="1283.3" stroke="#b0a897" stroke-width="1.0" stroke-dasharray="7 9"/>
<line x1="1954.7" y1="1283.3" x2="1949.9" y2="1294.0" stroke="#b0a897" stroke-width="1.0" stroke-dasharray="7 9"/>
<line x1="1949.9" y1="1294.0" x2="1946.2" y2="1304.7" stroke="#b0a897" stroke-width="1.0" stroke-dasharray="7 9"/>
<line x1="1946.2" y1="1304.7" x2="1943.5" y2="1315.4" stroke="#b0a897" stroke-width="1.0" stroke-dasharray="7 9"/>
<line x1="1943.5" y1="1315.4" x2="1941.9" y2="1326.1" stroke="#b0a897" stroke-width="1.0" stroke-dasharray="7 9"/>
<line x1="1941.9" y1="1326.1" x2="1941.4" y2="1336.8" stroke="#b0a897" stroke-width="1.0" stroke-dasharray="7 9"/>
<line x1="1941.4" y1="1336.8" x2="1941.9" y2="1347.5" stroke="#b0a897" stroke-width="1.0" stroke-dasharray="7 9"/>
<line x1="1941.9" y1="1347.5" x2="1943.5" y2="1358.1" stroke="#b0a897" stroke-width="1.0" stroke-dasharray="7 9"/>
<line x1="1943.5" y1="1358.1" x2="1946.2" y2="1368.8" stroke="#b0a897" stroke-width="1.0" stroke-dasharray="7 9"/>
<line x1="1946.2" y1="1368.8" x2="1949.9" y2="1379.5" stroke="#b0a897" stroke-width="1.0" stroke-dasharray="7 9"/>
<line x1="1949.9" y1="1379.5" x2="1954.7" y2="1390.2" stroke="#b0a897" stroke-width="1.0" stroke-dasharray="7 9"/>
<line x1="1954.7" y1="1390.2" x2="1960.6" y2="1400.9" stroke="#b0a897" stroke-width="1.0" stroke-dasharray="7 9"/>
<line x1="1960.6" y1="1400.9" x2="1967.6" y2="1411.6" stroke="#b0a897" stroke-width="1.0" stroke-dasharray="7 9"/>
<line x1="1967.6" y1="1411.6" x2="1975.6" y2="1422.3" stroke="#b0a897" stroke-width="1.0" stroke-dasharray="7 9"/>
<polygon points="1722.2,1485.9 2013.6,1485.9 2013.6,1461.5 1722.2,1461.5" fill="#2b2825" stroke="none" stroke-width="1.0"/>
<polygon points="1710.0,1473.7 1710.0,1906.4 1734.4,1906.4 1734.4,1473.7" fill="#2b2825" stroke="none" stroke-width="1.0"/>
<polygon points="2001.4,1473.7 2001.4,1571.1 2025.8,1571.1 2025.8,1473.7" fill="#2b2825" stroke="none" stroke-width="1.0"/>
<polygon points="2001.4,1727.1 2001.4,1906.4 2025.8,1906.4 2025.8,1727.1" fill="#2b2825" stroke="none" stroke-width="1.0"/>
<line x1="2013.6" y1="1571.1" x2="2169.6" y2="1571.1" stroke="#8a8378" stroke-width="1.4"/>
<line x1="2169.6" y1="1571.1" x2="2168.2" y2="1591.5" stroke="#c3bcae" stroke-width="1.0"/>
<line x1="2168.2" y1="1591.5" x2="2164.2" y2="1611.5" stroke="#c3bcae" stroke-width="1.0"/>
<line x1="2164.2" y1="1611.5" x2="2157.7" y2="1630.8" stroke="#c3bcae" stroke-width="1.0"/>
<line x1="2157.7" y1="1630.8" x2="2148.7" y2="1649.1" stroke="#c3bcae" stroke-width="1.0"/>
<line x1="2148.7" y1="1649.1" x2="2137.3" y2="1666.1" stroke="#c3bcae" stroke-width="1.0"/>
<line x1="2137.3" y1="1666.1" x2="2123.9" y2="1681.4" stroke="#c3bcae" stroke-width="1.0"/>
<line x1="2123.9" y1="1681.4" x2="2108.5" y2="1694.9" stroke="#c3bcae" stroke-width="1.0"/>
<line x1="2108.5" y1="1694.9" x2="2091.6" y2="1706.2" stroke="#c3bcae" stroke-width="1.0"/>
<line x1="2091.6" y1="1706.2" x2="2073.3" y2="1715.2" stroke="#c3bcae" stroke-width="1.0"/>
<line x1="2073.3" y1="1715.2" x2="2054.0" y2="1721.8" stroke="#c3bcae" stroke-width="1.0"/>
<line x1="2054.0" y1="1721.8" x2="2034.0" y2="1725.7" stroke="#c3bcae" stroke-width="1.0"/>
<line x1="2034.0" y1="1725.7" x2="2013.6" y2="1727.1" stroke="#c3bcae" stroke-width="1.0"/>
<polygon points="804.9,2265.3 808.8,2270.8 812.5,2276.1 816.0,2281.5 819.3,2286.8 822.5,2292.2 825.5,2297.5 828.3,2302.8 831.0,2308.2 852.8,2297.3 850.0,2291.6 846.9,2285.8 843.6,2280.0 840.2,2274.2 836.5,2268.4 832.8,2262.6 828.8,2256.8 824.8,2251.2" fill="#2b2825" stroke="none" stroke-width="1.0"/>
<polygon points="833.5,2470.0 831.0,2475.4 828.3,2480.7 825.5,2486.1 822.5,2491.4 819.3,2496.7 816.0,2502.0 812.5,2507.4 808.8,2512.7 804.9,2518.2 824.8,2532.4 828.8,2526.7 832.8,2520.9 836.5,2515.2 840.2,2509.4 843.6,2503.6 846.9,2497.8 850.0,2491.9 852.9,2486.1 855.6,2480.4" fill="#2b2825" stroke="none" stroke-width="1.0"/>
<line x1="844.5" y1="2308.3" x2="847.0" y2="2469.7" stroke="#b0a897" stroke-width="1.4" stroke-dasharray="7 9"/>
<line x1="844.5" y1="2308.3" x2="852.3" y2="2318.3" stroke="#b0a897" stroke-width="1.0" stroke-dasharray="7 9"/>
<line x1="852.3" y1="2318.3" x2="859.0" y2="2328.3" stroke="#b0a897" stroke-width="1.0" stroke-dasharray="7 9"/>
<line x1="859.0" y1="2328.3" x2="864.7" y2="2338.3" stroke="#b0a897" stroke-width="1.0" stroke-dasharray="7 9"/>
<line x1="864.7" y1="2338.3" x2="869.4" y2="2348.3" stroke="#b0a897" stroke-width="1.0" stroke-dasharray="7 9"/>
<line x1="869.4" y1="2348.3" x2="873.0" y2="2358.3" stroke="#b0a897" stroke-width="1.0" stroke-dasharray="7 9"/>
<line x1="873.0" y1="2358.3" x2="875.7" y2="2368.4" stroke="#b0a897" stroke-width="1.0" stroke-dasharray="7 9"/>
<line x1="875.7" y1="2368.4" x2="877.4" y2="2378.4" stroke="#b0a897" stroke-width="1.0" stroke-dasharray="7 9"/>
<line x1="877.4" y1="2378.4" x2="878.0" y2="2388.5" stroke="#b0a897" stroke-width="1.0" stroke-dasharray="7 9"/>
<line x1="878.0" y1="2388.5" x2="877.7" y2="2398.6" stroke="#b0a897" stroke-width="1.0" stroke-dasharray="7 9"/>
<line x1="877.7" y1="2398.6" x2="876.3" y2="2408.7" stroke="#b0a897" stroke-width="1.0" stroke-dasharray="7 9"/>
<line x1="876.3" y1="2408.7" x2="874.0" y2="2418.8" stroke="#b0a897" stroke-width="1.0" stroke-dasharray="7 9"/>
<line x1="874.0" y1="2418.8" x2="870.6" y2="2428.9" stroke="#b0a897" stroke-width="1.0" stroke-dasharray="7 9"/>
<line x1="870.6" y1="2428.9" x2="866.2" y2="2439.1" stroke="#b0a897" stroke-width="1.0" stroke-dasharray="7 9"/>
<line x1="866.2" y1="2439.1" x2="860.8" y2="2449.3" stroke="#b0a897" stroke-width="1.0" stroke-dasharray="7 9"/>
<line x1="860.8" y1="2449.3" x2="854.4" y2="2459.5" stroke="#b0a897" stroke-width="1.0" stroke-dasharray="7 9"/>
<line x1="854.4" y1="2459.5" x2="847.0" y2="2469.7" stroke="#b0a897" stroke-width="1.0" stroke-dasharray="7 9"/>
<line x1="1108.2" y1="2525.3" x2="1722.2" y2="2525.3" stroke="#b9b2a4" stroke-width="1.2" stroke-dasharray="10 12"/>
<polygon points="2169.5,1206.3 2179.1,1215.1 2188.7,1223.6 2198.4,1231.7 2208.1,1239.5 2217.8,1246.9 2227.5,1253.9 2237.2,1260.5 2246.9,1266.8 2256.7,1272.7 2266.4,1278.2 2276.2,1283.4 2285.9,1288.2 2295.7,1292.6 2305.5,1296.6 2315.3,1300.2 2325.1,1303.5 2335.0,1306.4 2344.8,1308.9 2354.7,1311.0 2364.5,1312.7 2374.4,1314.1 2384.2,1315.0 2394.1,1315.6 2403.9,1315.8 2413.8,1315.6 2423.7,1315.0 2433.5,1314.1 2443.4,1312.7 2453.2,1311.0 2463.1,1308.9 2472.9,1306.4 2482.7,1303.5 2492.6,1300.2 2502.4,1296.6 2512.2,1292.6 2521.9,1288.2 2531.7,1283.4 2541.5,1278.2 2551.2,1272.7 2561.0,1266.8 2570.7,1260.5 2580.4,1253.9 2590.1,1246.9 2599.8,1239.5 2609.5,1231.7 2619.2,1223.6 2628.8,1215.1 2638.4,1206.3 2626.6,1193.4 2617.1,1202.0 2607.7,1210.3 2598.4,1218.2 2589.0,1225.7 2579.6,1232.8 2570.3,1239.6 2561.0,1245.9 2551.7,1251.9 2542.4,1257.6 2533.1,1262.9 2523.8,1267.8 2514.5,1272.3 2505.2,1276.4 2496.0,1280.2 2486.7,1283.7 2477.5,1286.7 2468.3,1289.4 2459.1,1291.8 2449.9,1293.8 2440.7,1295.4 2431.5,1296.6 2422.3,1297.5 2413.1,1298.1 2403.9,1298.3 2394.8,1298.1 2385.6,1297.5 2376.4,1296.6 2367.2,1295.4 2358.0,1293.8 2348.8,1291.8 2339.6,1289.4 2330.4,1286.7 2321.2,1283.7 2311.9,1280.2 2302.7,1276.4 2293.4,1272.3 2284.1,1267.8 2274.8,1262.9 2265.5,1257.6 2256.2,1251.9 2246.9,1245.9 2237.6,1239.6 2228.2,1232.8 2218.9,1225.7 2209.5,1218.2 2200.2,1210.3 2190.8,1202.0 2181.3,1193.4" fill="#6f6a61" stroke="none" stroke-width="1.0"/>
<line x1="397.7" y1="352.9" x2="976.6" y2="352.9" stroke="#2e8b9a" stroke-width="3.0"/>
<line x1="2028.2" y1="352.9" x2="2617.9" y2="352.9" stroke="#2e8b9a" stroke-width="3.0"/>
<line x1="397.7" y1="364.6" x2="976.6" y2="364.6" stroke="#2e8b9a" stroke-width="3.0"/>
<line x1="2028.2" y1="364.6" x2="2617.9" y2="364.6" stroke="#2e8b9a" stroke-width="3.0"/>
<line x1="397.7" y1="370.4" x2="976.6" y2="370.4" stroke="#2e8b9a" stroke-width="3.0"/>
<line x1="2028.2" y1="370.4" x2="2617.9" y2="370.4" stroke="#2e8b9a" stroke-width="3.0"/>
<line x1="397.7" y1="382.1" x2="976.6" y2="382.1" stroke="#2e8b9a" stroke-width="3.0"/>
<line x1="2028.2" y1="382.1" x2="2617.9" y2="382.1" stroke="#2e8b9a" stroke-width="3.0"/>
<line x1="1061.4" y1="473.7" x2="1207.6" y2="473.7" stroke="#2e8b9a" stroke-width="3.0"/>
<line x1="1363.6" y1="473.7" x2="1636.4" y2="473.7" stroke="#2e8b9a" stroke-width="3.0"/>
<line x1="1792.4" y1="473.7" x2="1938.6" y2="473.7" stroke="#2e8b9a" stroke-width="3.0"/>
<line x1="1061.4" y1="485.4" x2="1207.6" y2="485.4" stroke="#2e8b9a" stroke-width="3.0"/>
<line x1="1363.6" y1="485.4" x2="1636.4" y2="485.4" stroke="#2e8b9a" stroke-width="3.0"/>
<line x1="1792.4" y1="485.4" x2="1938.6" y2="485.4" stroke="#2e8b9a" stroke-width="3.0"/>
<line x1="1061.4" y1="491.3" x2="1207.6" y2="491.3" stroke="#2e8b9a" stroke-width="3.0"/>
<line x1="1363.6" y1="491.3" x2="1636.4" y2="491.3" stroke="#2e8b9a" stroke-width="3.0"/>
<line x1="1792.4" y1="491.3" x2="1938.6" y2="491.3" stroke="#2e8b9a" stroke-width="3.0"/>
<line x1="1061.4" y1="503.0" x2="1207.6" y2="503.0" stroke="#2e8b9a" stroke-width="3.0"/>
<line x1="1363.6" y1="503.0" x2="1636.4" y2="503.0" stroke="#2e8b9a" stroke-width="3.0"/>
<line x1="1792.4" y1="503.0" x2="1938.6" y2="503.0" stroke="#2e8b9a" stroke-width="3.0"/>
<line x1="1792.4" y1="1891.8" x2="1938.6" y2="1891.8" stroke="#2e8b9a" stroke-width="3.0"/>
<line x1="1792.4" y1="1903.5" x2="1938.6" y2="1903.5" stroke="#2e8b9a" stroke-width="3.0"/>
<line x1="1792.4" y1="1909.3" x2="1938.6" y2="1909.3" stroke="#2e8b9a" stroke-width="3.0"/>
<line x1="2043.8" y1="2010.7" x2="2617.9" y2="2010.7" stroke="#2e8b9a" stroke-width="3.0"/>
<line x1="2043.8" y1="2022.4" x2="2617.9" y2="2022.4" stroke="#2e8b9a" stroke-width="3.0"/>
<line x1="2043.8" y1="2028.2" x2="2617.9" y2="2028.2" stroke="#2e8b9a" stroke-width="3.0"/>
<line x1="829.5" y1="2510.7" x2="1063.4" y2="2510.7" stroke="#2e8b9a" stroke-width="3.0"/>
<line x1="1139.4" y1="2510.7" x2="1692.0" y2="2510.7" stroke="#2e8b9a" stroke-width="3.0"/>
<line x1="829.5" y1="2522.4" x2="1063.4" y2="2522.4" stroke="#2e8b9a" stroke-width="3.0"/>
<line x1="1139.4" y1="2522.4" x2="1692.0" y2="2522.4" stroke="#2e8b9a" stroke-width="3.0"/>
<line x1="829.5" y1="2528.2" x2="1063.4" y2="2528.2" stroke="#2e8b9a" stroke-width="3.0"/>
<line x1="1139.4" y1="2528.2" x2="1692.0" y2="2528.2" stroke="#2e8b9a" stroke-width="3.0"/>
<line x1="1139.4" y1="2539.9" x2="1692.0" y2="2539.9" stroke="#2e8b9a" stroke-width="3.0"/>
</g>
<g id="L-labels">
<text x="674.5" y="754.4" font-family="Helvetica,Arial" font-size="15" fill="#1d1b18" font-weight="bold" letter-spacing="1.1" text-anchor="middle">GUEST / STUDY</text>
<text x="674.5" y="832.4" font-family="Helvetica,Arial" font-size="9" fill="#6f6a61" font-weight="normal" letter-spacing="0" text-anchor="middle">the one spare room: a desk under the north window, a bed for visitors</text>
<text x="1140.4" y="696.0" font-family="Helvetica,Arial" font-size="15" fill="#1d1b18" font-weight="bold" letter-spacing="1.1" text-anchor="middle">BATH</text>
<text x="1140.4" y="729.1" font-family="Helvetica,Arial" font-size="10" fill="#2c5c61" font-weight="normal" letter-spacing="2" text-anchor="middle">GUEST</text>
<text x="1140.4" y="789.5" font-family="Helvetica,Arial" font-size="9" fill="#6f6a61" font-weight="normal" letter-spacing="0" text-anchor="middle">on the west service shaft, as drawn</text>
<text x="1140.4" y="1056.6" font-family="Helvetica,Arial" font-size="15" fill="#1d1b18" font-weight="bold" letter-spacing="1.1" text-anchor="middle">HALL</text>
<text x="1140.4" y="1134.5" font-family="Helvetica,Arial" font-size="9" fill="#6f6a61" font-weight="normal" letter-spacing="0" text-anchor="middle">guest room, guest bath and the living room meet here</text>
<text x="1504.9" y="812.9" font-family="Helvetica,Arial" font-size="15" fill="#1d1b18" font-weight="bold" letter-spacing="1.1" text-anchor="middle">KITCHEN</text>
<text x="1504.9" y="890.9" font-family="Helvetica,Arial" font-size="9" fill="#6f6a61" font-weight="normal" letter-spacing="0" text-anchor="middle">open to the dining across a bowed counter</text>
<text x="1867.4" y="812.9" font-family="Helvetica,Arial" font-size="15" fill="#1d1b18" font-weight="bold" letter-spacing="1.1" text-anchor="middle">UTILITY &amp; STORE</text>
<text x="1867.4" y="890.9" font-family="Helvetica,Arial" font-size="9" fill="#6f6a61" font-weight="normal" letter-spacing="0" text-anchor="middle">washing, drying and the deep shelves</text>
<text x="2321.6" y="793.4" font-family="Helvetica,Arial" font-size="15" fill="#1d1b18" font-weight="bold" letter-spacing="1.1" text-anchor="middle">FAMILY BEDROOM</text>
<text x="2321.6" y="871.4" font-family="Helvetica,Arial" font-size="9" fill="#6f6a61" font-weight="normal" letter-spacing="0" text-anchor="middle">one room for all three: the adults south, the child's end north behind</text>
<text x="1867.4" y="1319.7" font-family="Helvetica,Arial" font-size="15" fill="#1d1b18" font-weight="bold" letter-spacing="1.1" text-anchor="middle">VESTIBULE</text>
<text x="1867.4" y="1397.7" font-family="Helvetica,Arial" font-size="9" fill="#6f6a61" font-weight="normal" letter-spacing="0" text-anchor="middle">the arched threshold into the family wing</text>
<text x="1867.4" y="1670.6" font-family="Helvetica,Arial" font-size="15" fill="#1d1b18" font-weight="bold" letter-spacing="1.1" text-anchor="middle">BATH</text>
<text x="1867.4" y="1703.7" font-family="Helvetica,Arial" font-size="10" fill="#2c5c61" font-weight="normal" letter-spacing="2" text-anchor="middle">FAMILY</text>
<text x="1867.4" y="1764.1" font-family="Helvetica,Arial" font-size="9" fill="#6f6a61" font-weight="normal" letter-spacing="0" text-anchor="middle">on the south-east shaft, entered from the bedroom</text>
<text x="1239.8" y="1826.5" font-family="Helvetica,Arial" font-size="15" fill="#1d1b18" font-weight="bold" letter-spacing="1.1" text-anchor="middle">LIVING / DINING</text>
<text x="1239.8" y="1904.5" font-family="Helvetica,Arial" font-size="9" fill="#6f6a61" font-weight="normal" letter-spacing="0" text-anchor="middle">one room from the front door to the balcony, read through three arches</text>
<text x="650.1" y="2372.3" font-family="Helvetica,Arial" font-size="15" fill="#1d1b18" font-weight="bold" letter-spacing="1.1" text-anchor="middle">FOYER</text>
<text x="650.1" y="2450.2" font-family="Helvetica,Arial" font-size="9" fill="#6f6a61" font-weight="normal" letter-spacing="0" text-anchor="middle">the way in</text>
<text x="1415.2" y="2645.2" font-family="Helvetica,Arial" font-size="15" fill="#1d1b18" font-weight="bold" letter-spacing="1.1" text-anchor="middle">BALCONY</text>
<text x="1415.2" y="2723.1" font-family="Helvetica,Arial" font-size="9" fill="#6f6a61" font-weight="normal" letter-spacing="0" text-anchor="middle">off the living room</text>
</g>
<g id="L-title">
<text x="1500.0" y="167.7" font-family="Helvetica,Arial" font-size="22" fill="#1d1b18" font-weight="bold" letter-spacing="2" text-anchor="middle">EKTA — 14TH FLOOR, NEELDHARA</text>
<text x="1500.0" y="224.2" font-family="Helvetica,Arial" font-size="11" fill="#6f6a61" font-weight="normal" letter-spacing="1" text-anchor="middle">imported from the builder's DWG · 1073 sq ft RERA</text>
</g></svg>