<svg xmlns="http://www.w3.org/2000/svg" width="3000" height="2551" viewBox="0 0 3000 2551"><rect x="0" y="0" width="3000" height="2551" fill="#f7f5f0"/>
<g id="L-floor">
<polygon points="-3021.6,-1751.1 -517.9,-1751.1 -517.9,-1287.7 3289.9,-1287.7 3289.9,-1751.1 5774.9,-1751.1 5774.9,4717.4 3289.9,4717.4 3289.9,4261.5 2284.7,4261.5 2284.7,7680.7 -181.6,7680.7 -181.6,6634.4 -2569.4,6634.4 -2569.4,5498.4 -1306.4,5498.4 -1306.4,1552.3 -3021.6,1552.3" fill="#2b2825" stroke="#3b3833" stroke-width="2.0"/>
<polygon points="-2909.5,-1638.9 -630.0,-1638.9 -630.0,-1175.6 3402.1,-1175.6 3402.1,-1638.9 5662.8,-1638.9 5662.8,4605.3 3402.1,4605.3 3402.1,4149.4 2172.6,4149.4 2172.6,6634.4 2172.6,7568.6 -69.5,7568.6 -69.5,6634.4 -69.5,6522.3 -2457.3,6522.3 -2457.3,5610.5 -1194.3,5610.5 -1194.3,1440.2 -2909.5,1440.2" fill="#efece5" stroke="none" stroke-width="1.0"/>
</g>
<g id="L-ref">
<rect x="3289.9" y="-1287.7" width="171.9" height="896.8" fill="#b5342c" stroke="#7c1610" stroke-width="0.8"/>
<rect x="-3021.6" y="-1063.5" width="171.9" height="896.8" fill="#b5342c" stroke="#7c1610" stroke-width="0.8"/>
<rect x="-630.0" y="-1063.5" width="171.9" height="672.6" fill="#b5342c" stroke="#7c1610" stroke-width="0.8"/>
<rect x="3289.9" y="3364.7" width="171.9" height="896.8" fill="#b5342c" stroke="#7c1610" stroke-width="0.8"/>
<rect x="2112.8" y="4261.5" width="171.9" height="919.3" fill="#b5342c" stroke="#7c1610" stroke-width="0.8"/>
</g>
<g id="L-furniture">
<polygon points="-2909.5,-1638.9 -2461.1,-1638.9 -2490.3,-1638.0 -2519.6,-1635.1 -2548.6,-1630.4 -2577.1,-1623.7 -2605.2,-1615.2 -2632.6,-1604.8 -2659.4,-1592.7 -2685.3,-1578.9 -2710.2,-1563.4 -2734.1,-1546.3 -2756.7,-1527.7 -2778.2,-1507.6 -2798.2,-1486.2 -2816.8,-1463.5 -2833.9,-1439.6 -2849.4,-1414.7 -2863.2,-1388.9 -2875.3,-1362.1 -2885.7,-1334.7 -2894.2,-1306.6 -2900.9,-1278.0 -2905.7,-1249.0 -2908.5,-1219.8 -2909.5,-1190.5" fill="#d9c9a8" stroke="#8a7d63" stroke-width="1.2"/>
<polygon points="-630.0,-1638.9 -1078.4,-1638.9 -1049.1,-1638.0 -1019.9,-1635.1 -990.9,-1630.4 -962.4,-1623.7 -934.3,-1615.2 -906.8,-1604.8 -880.1,-1592.7 -854.2,-1578.9 -829.3,-1563.4 -805.4,-1546.3 -782.8,-1527.7 -761.3,-1507.6 -741.3,-1486.2 -722.7,-1463.5 -705.6,-1439.6 -690.1,-1414.7 -676.3,-1388.9 -664.2,-1362.1 -653.8,-1334.7 -645.2,-1306.6 -638.6,-1278.0 -633.8,-1249.0 -631.0,-1219.8 -630.0,-1190.5" fill="#d9c9a8" stroke="#8a7d63" stroke-width="1.2"/>
<polygon points="-2909.5,1440.2 -2909.5,991.8 -2908.5,1021.1 -2905.7,1050.3 -2900.9,1079.3 -2894.2,1107.9 -2885.7,1136.0 -2875.3,1163.4 -2863.2,1190.1 -2849.4,1216.0 -2833.9,1240.9 -2816.8,1264.8 -2798.2,1287.4 -2778.2,1308.9 -2756.7,1328.9 -2734.1,1347.5 -2710.2,1364.7 -2685.3,1380.1 -2659.4,1393.9 -2632.6,1406.1 -2605.2,1416.4 -2577.1,1425.0 -2548.6,1431.6 -2519.6,1436.4 -2490.3,1439.2 -2461.1,1440.2" fill="#d9c9a8" stroke="#8a7d63" stroke-width="1.2"/>
<polygon points="3402.1,-1638.9 3402.1,-1190.5 3403.0,-1219.8 3405.9,-1249.0 3410.6,-1278.0 3417.3,-1306.6 3425.8,-1334.7 3436.2,-1362.1 3448.3,-1388.9 3462.1,-1414.7 3477.6,-1439.6 3494.7,-1463.5 3513.3,-1486.2 3533.4,-1507.6 3554.8,-1527.7 3577.5,-1546.3 3601.4,-1563.4 3626.3,-1578.9 3652.1,-1592.7 3678.9,-1604.8 3706.3,-1615.2 3734.4,-1623.7 3763.0,-1630.4 3792.0,-1635.1 3821.2,-1638.0 3850.5,-1638.9" fill="#d9c9a8" stroke="#8a7d63" stroke-width="1.2"/>
<polygon points="5662.8,-1638.9 5214.4,-1638.9 5243.7,-1638.0 5272.9,-1635.1 5301.9,-1630.4 5330.5,-1623.7 5358.6,-1615.2 5386.0,-1604.8 5412.8,-1592.7 5438.6,-1578.9 5463.5,-1563.4 5487.4,-1546.3 5510.1,-1527.7 5531.5,-1507.6 5551.6,-1486.2 5570.2,-1463.5 5587.3,-1439.6 5602.8,-1414.7 5616.6,-1388.9 5628.7,-1362.1 5639.1,-1334.7 5647.6,-1306.6 5654.2,-1278.0 5659.0,-1249.0 5661.9,-1219.8 5662.8,-1190.5" fill="#d9c9a8" stroke="#8a7d63" stroke-width="1.2"/>
<polygon points="5662.8,4605.3 5662.8,4156.9 5661.9,4186.2 5659.0,4215.4 5654.2,4244.4 5647.6,4273.0 5639.1,4301.1 5628.7,4328.5 5616.6,4355.2 5602.8,4381.1 5587.3,4406.0 5570.2,4429.9 5551.6,4452.6 5531.5,4474.0 5510.1,4494.0 5487.4,4512.6 5463.5,4529.8 5438.6,4545.2 5412.8,4559.1 5386.0,4571.2 5358.6,4581.5 5330.5,4590.1 5301.9,4596.7 5272.9,4601.5 5243.7,4604.3 5214.4,4605.3" fill="#d9c9a8" stroke="#8a7d63" stroke-width="1.2"/>
<polygon points="1122.6,517.2 1720.5,517.2 1720.5,2034.4 1122.6,2034.4" fill="#d9c9a8" stroke="#8a7d63" stroke-width="1.2"/>
<rect x="655.5" y="1081.5" width="336.3" height="336.3" fill="#ffffff" stroke="#8a8378" stroke-width="1.0"/>
<rect x="655.5" y="1604.6" width="336.3" height="336.3" fill="#ffffff" stroke="#8a8378" stroke-width="1.0"/>
<rect x="1851.3" y="1081.5" width="336.3" height="336.3" fill="#ffffff" stroke="#8a8378" stroke-width="1.0"/>
<rect x="1851.3" y="1604.6" width="336.3" height="336.3" fill="#ffffff" stroke="#8a8378" stroke-width="1.0"/>
<polygon points="3461.8,-443.2 3566.5,-443.2 3566.5,229.5 3461.8,229.5" fill="#d9c9a8" stroke="#8a7d63" stroke-width="1.2"/>
</g>
<g id="L-floor-walls">
<polygon points="364.0,-1231.6 364.0,229.5 364.9,266.7 367.6,303.8 372.2,340.8 378.6,377.5 386.8,413.8 396.7,449.7 408.3,485.0 421.7,519.8 436.8,553.8 453.6,587.1 471.9,619.5 491.9,650.9 513.2,681.3 536.2,710.7 560.5,738.9 586.2,765.9 613.1,791.6 641.3,815.9 670.8,838.8 701.1,860.2 732.6,880.1 765.0,898.5 798.2,915.2 832.3,930.3 867.1,943.7 902.4,955.4 938.2,965.3 974.5,973.5 1011.2,979.9 1048.3,984.4 1085.4,987.1 1122.5,988.1 2703.3,988.1 2740.5,987.1 2777.6,984.4 2814.6,979.9 2851.3,973.5 2887.6,965.3 2923.5,955.4 2958.8,943.7 2993.5,930.3 3027.6,915.2 3060.9,898.5 3093.3,880.1 3124.7,860.2 3155.1,838.8 3184.5,815.9 3212.7,791.6 3239.7,765.9 3265.4,738.9 3289.7,710.7 3312.6,681.3 3334.0,650.9 3353.9,619.5 3372.3,587.1 3389.0,553.8 3404.1,519.8 3417.5,485.0 3429.2,449.7 3439.1,413.8 3447.2,377.5 3453.7,340.8 3458.2,303.8 3460.9,266.7 3461.8,229.5 3461.8,-1231.6 3289.9,-1231.6 3289.9,229.4 3289.2,258.3 3287.1,287.0 3283.6,315.6 3278.7,343.9 3272.4,372.0 3264.6,399.8 3255.6,427.2 3245.3,454.0 3233.6,480.3 3220.6,506.1 3206.5,531.1 3191.1,555.4 3174.5,579.0 3156.7,601.7 3138.0,623.5 3118.1,644.3 3097.2,664.2 3075.5,683.0 3052.8,700.7 3029.2,717.3 3004.9,732.7 2979.9,746.8 2954.1,759.8 2927.8,771.5 2900.9,781.9 2873.6,790.9 2845.8,798.6 2817.7,804.9 2789.3,809.8 2760.8,813.4 2732.1,815.4 2703.2,816.2 1122.6,816.2 1093.7,815.4 1065.0,813.4 1036.5,809.8 1008.2,804.9 980.0,798.6 952.2,790.9 924.9,781.9 898.1,771.5 871.7,759.8 846.0,746.8 821.0,732.7 796.7,717.3 773.1,700.7 750.3,683.0 728.6,664.2 707.7,644.3 687.8,623.5 669.1,601.7 651.4,579.0 634.8,555.4 619.3,531.1 605.2,506.1 592.2,480.3 580.5,454.0 570.2,427.2 561.2,399.8 553.5,372.0 547.2,343.9 542.2,315.6 538.7,287.0 536.6,258.3 535.9,229.4 535.9,-1231.6" fill="#2b2825" stroke="none" stroke-width="1.0"/>
<line x1="449.9" y1="-543.6" x2="449.9" y2="229.5" stroke="#2e8b9a" stroke-width="3.0"/>
<line x1="449.9" y1="229.5" x2="450.8" y2="262.5" stroke="#2e8b9a" stroke-width="3.0"/>
<line x1="450.8" y1="262.5" x2="453.2" y2="295.4" stroke="#2e8b9a" stroke-width="3.0"/>
<line x1="453.2" y1="295.4" x2="457.2" y2="328.2" stroke="#2e8b9a" stroke-width="3.0"/>
<line x1="457.2" y1="328.2" x2="462.9" y2="360.7" stroke="#2e8b9a" stroke-width="3.0"/>
<line x1="462.9" y1="360.7" x2="470.1" y2="392.9" stroke="#2e8b9a" stroke-width="3.0"/>
<line x1="470.1" y1="392.9" x2="478.9" y2="424.8" stroke="#2e8b9a" stroke-width="3.0"/>
<line x1="478.9" y1="424.8" x2="489.3" y2="456.1" stroke="#2e8b9a" stroke-width="3.0"/>
<line x1="489.3" y1="456.1" x2="501.1" y2="486.9" stroke="#2e8b9a" stroke-width="3.0"/>
<line x1="501.1" y1="486.9" x2="514.5" y2="517.1" stroke="#2e8b9a" stroke-width="3.0"/>
<line x1="514.5" y1="517.1" x2="529.4" y2="546.6" stroke="#2e8b9a" stroke-width="3.0"/>
<line x1="529.4" y1="546.6" x2="545.6" y2="575.3" stroke="#2e8b9a" stroke-width="3.0"/>
<line x1="545.6" y1="575.3" x2="563.3" y2="603.2" stroke="#2e8b9a" stroke-width="3.0"/>
<line x1="563.3" y1="603.2" x2="582.3" y2="630.1" stroke="#2e8b9a" stroke-width="3.0"/>
<line x1="582.3" y1="630.1" x2="602.6" y2="656.2" stroke="#2e8b9a" stroke-width="3.0"/>
<line x1="602.6" y1="656.2" x2="624.2" y2="681.2" stroke="#2e8b9a" stroke-width="3.0"/>
<line x1="624.2" y1="681.2" x2="647.0" y2="705.1" stroke="#2e8b9a" stroke-width="3.0"/>
<line x1="647.0" y1="705.1" x2="670.9" y2="727.9" stroke="#2e8b9a" stroke-width="3.0"/>
<line x1="670.9" y1="727.9" x2="695.8" y2="749.4" stroke="#2e8b9a" stroke-width="3.0"/>
<line x1="695.8" y1="749.4" x2="721.9" y2="769.7" stroke="#2e8b9a" stroke-width="3.0"/>
<line x1="721.9" y1="769.7" x2="748.9" y2="788.7" stroke="#2e8b9a" stroke-width="3.0"/>
<line x1="748.9" y1="788.7" x2="776.8" y2="806.4" stroke="#2e8b9a" stroke-width="3.0"/>
<line x1="776.8" y1="806.4" x2="805.5" y2="822.7" stroke="#2e8b9a" stroke-width="3.0"/>
<line x1="805.5" y1="822.7" x2="835.0" y2="837.5" stroke="#2e8b9a" stroke-width="3.0"/>
<line x1="835.0" y1="837.5" x2="865.2" y2="850.9" stroke="#2e8b9a" stroke-width="3.0"/>
<line x1="865.2" y1="850.9" x2="896.0" y2="862.8" stroke="#2e8b9a" stroke-width="3.0"/>
<line x1="896.0" y1="862.8" x2="927.3" y2="873.1" stroke="#2e8b9a" stroke-width="3.0"/>
<line x1="927.3" y1="873.1" x2="959.1" y2="881.9" stroke="#2e8b9a" stroke-width="3.0"/>
<line x1="959.1" y1="881.9" x2="991.3" y2="889.2" stroke="#2e8b9a" stroke-width="3.0"/>
<line x1="991.3" y1="889.2" x2="1023.9" y2="894.9" stroke="#2e8b9a" stroke-width="3.0"/>
<line x1="1023.9" y1="894.9" x2="1056.7" y2="898.9" stroke="#2e8b9a" stroke-width="3.0"/>
<line x1="1056.7" y1="898.9" x2="1089.5" y2="901.3" stroke="#2e8b9a" stroke-width="3.0"/>
<line x1="1089.5" y1="901.3" x2="1122.6" y2="902.1" stroke="#2e8b9a" stroke-width="3.0"/>
<line x1="1122.6" y1="902.1" x2="1720.5" y2="902.1" stroke="#8a8378" stroke-width="2.0" stroke-dasharray="10 8"/>
<line x1="1720.5" y1="902.1" x2="2703.3" y2="902.1" stroke="#2e8b9a" stroke-width="3.0"/>
<line x1="2703.3" y1="902.1" x2="2736.3" y2="901.3" stroke="#2e8b9a" stroke-width="3.0"/>
<line x1="2736.3" y1="901.3" x2="2769.2" y2="898.9" stroke="#2e8b9a" stroke-width="3.0"/>
<line x1="2769.2" y1="898.9" x2="2802.0" y2="894.9" stroke="#2e8b9a" stroke-width="3.0"/>
<line x1="2802.0" y1="894.9" x2="2834.5" y2="889.2" stroke="#2e8b9a" stroke-width="3.0"/>
<line x1="2834.5" y1="889.2" x2="2866.7" y2="881.9" stroke="#2e8b9a" stroke-width="3.0"/>
<line x1="2866.7" y1="881.9" x2="2898.6" y2="873.1" stroke="#2e8b9a" stroke-width="3.0"/>
<line x1="2898.6" y1="873.1" x2="2929.9" y2="862.8" stroke="#2e8b9a" stroke-width="3.0"/>
<line x1="2929.9" y1="862.8" x2="2960.7" y2="850.9" stroke="#2e8b9a" stroke-width="3.0"/>
<line x1="2960.7" y1="850.9" x2="2990.9" y2="837.5" stroke="#2e8b9a" stroke-width="3.0"/>
<line x1="2990.9" y1="837.5" x2="3020.4" y2="822.7" stroke="#2e8b9a" stroke-width="3.0"/>
<line x1="3020.4" y1="822.7" x2="3049.1" y2="806.4" stroke="#2e8b9a" stroke-width="3.0"/>
<line x1="3049.1" y1="806.4" x2="3076.9" y2="788.7" stroke="#2e8b9a" stroke-width="3.0"/>
<line x1="3076.9" y1="788.7" x2="3103.9" y2="769.7" stroke="#2e8b9a" stroke-width="3.0"/>
<line x1="3103.9" y1="769.7" x2="3130.0" y2="749.4" stroke="#2e8b9a" stroke-width="3.0"/>
<line x1="3130.0" y1="749.4" x2="3155.0" y2="727.9" stroke="#2e8b9a" stroke-width="3.0"/>
<line x1="3155.0" y1="727.9" x2="3178.9" y2="705.1" stroke="#2e8b9a" stroke-width="3.0"/>
<line x1="3178.9" y1="705.1" x2="3201.7" y2="681.2" stroke="#2e8b9a" stroke-width="3.0"/>
<line x1="3201.7" y1="681.2" x2="3223.2" y2="656.2" stroke="#2e8b9a" stroke-width="3.0"/>
<line x1="3223.2" y1="656.2" x2="3243.5" y2="630.1" stroke="#2e8b9a" stroke-width="3.0"/>
<line x1="3243.5" y1="630.1" x2="3262.5" y2="603.2" stroke="#2e8b9a" stroke-width="3.0"/>
<line x1="3262.5" y1="603.2" x2="3280.2" y2="575.3" stroke="#2e8b9a" stroke-width="3.0"/>
<line x1="3280.2" y1="575.3" x2="3296.4" y2="546.6" stroke="#2e8b9a" stroke-width="3.0"/>
<line x1="3296.4" y1="546.6" x2="3311.3" y2="517.1" stroke="#2e8b9a" stroke-width="3.0"/>
<line x1="3311.3" y1="517.1" x2="3324.7" y2="486.9" stroke="#2e8b9a" stroke-width="3.0"/>
<line x1="3324.7" y1="486.9" x2="3336.6" y2="456.1" stroke="#2e8b9a" stroke-width="3.0"/>
<line x1="3336.6" y1="456.1" x2="3346.9" y2="424.8" stroke="#2e8b9a" stroke-width="3.0"/>
<line x1="3346.9" y1="424.8" x2="3355.7" y2="392.9" stroke="#2e8b9a" stroke-width="3.0"/>
<line x1="3355.7" y1="392.9" x2="3363.0" y2="360.7" stroke="#2e8b9a" stroke-width="3.0"/>
<line x1="3363.0" y1="360.7" x2="3368.6" y2="328.2" stroke="#2e8b9a" stroke-width="3.0"/>
<line x1="3368.6" y1="328.2" x2="3372.7" y2="295.4" stroke="#2e8b9a" stroke-width="3.0"/>
<line x1="3372.7" y1="295.4" x2="3375.1" y2="262.5" stroke="#2e8b9a" stroke-width="3.0"/>
<line x1="3375.1" y1="262.5" x2="3375.9" y2="229.5" stroke="#2e8b9a" stroke-width="3.0"/>
<line x1="3375.9" y1="229.5" x2="3375.9" y2="-543.6" stroke="#2e8b9a" stroke-width="3.0"/>
<line x1="3375.9" y1="-1231.6" x2="3346.0" y2="-1231.6" stroke="#b9b2a4" stroke-width="1.2" stroke-dasharray="10 12"/>
<polygon points="-630.0,-1231.6 -630.0,-592.6 -517.9,-592.6 -517.9,-1231.6" fill="#2b2825" stroke="none" stroke-width="1.0"/>
<polygon points="-630.0,-32.1 -630.0,620.0 -517.9,620.0 -517.9,-32.1" fill="#2b2825" stroke="none" stroke-width="1.0"/>
<line x1="-573.9" y1="-592.6" x2="-1134.5" y2="-592.6" stroke="#8a8378" stroke-width="1.4"/>
<line x1="-1134.5" y1="-592.6" x2="-1129.7" y2="-519.5" stroke="#c3bcae" stroke-width="1.0"/>
<line x1="-1129.7" y1="-519.5" x2="-1115.4" y2="-447.6" stroke="#c3bcae" stroke-width="1.0"/>
<line x1="-1115.4" y1="-447.6" x2="-1091.8" y2="-378.1" stroke="#c3bcae" stroke-width="1.0"/>
<line x1="-1091.8" y1="-378.1" x2="-1059.4" y2="-312.4" stroke="#c3bcae" stroke-width="1.0"/>
<line x1="-1059.4" y1="-312.4" x2="-1018.6" y2="-251.4" stroke="#c3bcae" stroke-width="1.0"/>
<line x1="-1018.6" y1="-251.4" x2="-970.3" y2="-196.3" stroke="#c3bcae" stroke-width="1.0"/>
<line x1="-970.3" y1="-196.3" x2="-915.2" y2="-147.9" stroke="#c3bcae" stroke-width="1.0"/>
<line x1="-915.2" y1="-147.9" x2="-854.2" y2="-107.2" stroke="#c3bcae" stroke-width="1.0"/>
<line x1="-854.2" y1="-107.2" x2="-788.5" y2="-74.8" stroke="#c3bcae" stroke-width="1.0"/>
<line x1="-788.5" y1="-74.8" x2="-719.0" y2="-51.2" stroke="#c3bcae" stroke-width="1.0"/>
<line x1="-719.0" y1="-51.2" x2="-647.1" y2="-36.9" stroke="#c3bcae" stroke-width="1.0"/>
<line x1="-647.1" y1="-36.9" x2="-573.9" y2="-32.1" stroke="#c3bcae" stroke-width="1.0"/>
<polygon points="-1236.1,1335.9 -1258.4,1380.6 -1280.3,1426.7 -1301.4,1473.1 -1199.3,1519.4 -1178.6,1473.9 -1157.6,1429.7 -1135.8,1385.9" fill="#2b2825" stroke="none" stroke-width="1.0"/>
<polygon points="-382.5,430.9 -421.9,453.0 -461.3,476.4 -500.0,500.5 -538.1,525.6 -575.5,551.4 -612.3,578.2 -648.4,605.8 -684.0,634.3 -718.8,663.6 -753.1,693.8 -786.7,724.8 -819.1,756.2 -741.2,836.8 -709.6,806.2 -678.0,777.0 -645.7,748.5 -612.8,720.9 -579.4,694.1 -545.3,668.1 -510.6,642.9 -475.4,618.5 -439.5,594.9 -403.0,572.1 -365.9,550.1 -327.6,528.6" fill="#2b2825" stroke="none" stroke-width="1.0"/>
<polygon points="442.4,173.9 391.9,180.8 341.5,188.7 292.2,197.2 311.4,307.7 359.7,299.3 408.0,291.8 457.5,285.0" fill="#2b2825" stroke="none" stroke-width="1.0"/>
<line x1="264.8" y1="259.6" x2="394.5" y2="881.0" stroke="#8a8378" stroke-width="1.4"/>
<line x1="394.5" y1="881.0" x2="312.3" y2="892.6" stroke="#c3bcae" stroke-width="1.0"/>
<line x1="312.3" y1="892.6" x2="229.3" y2="893.4" stroke="#c3bcae" stroke-width="1.0"/>
<line x1="229.3" y1="893.4" x2="146.9" y2="883.4" stroke="#c3bcae" stroke-width="1.0"/>
<line x1="146.9" y1="883.4" x2="66.5" y2="862.6" stroke="#c3bcae" stroke-width="1.0"/>
<line x1="66.5" y1="862.6" x2="-10.5" y2="831.6" stroke="#c3bcae" stroke-width="1.0"/>
<line x1="-10.5" y1="831.6" x2="-82.8" y2="790.7" stroke="#c3bcae" stroke-width="1.0"/>
<line x1="-82.8" y1="790.7" x2="-149.2" y2="740.8" stroke="#c3bcae" stroke-width="1.0"/>
<line x1="-149.2" y1="740.8" x2="-208.5" y2="682.7" stroke="#c3bcae" stroke-width="1.0"/>
<line x1="-208.5" y1="682.7" x2="-259.6" y2="617.3" stroke="#c3bcae" stroke-width="1.0"/>
<line x1="-259.6" y1="617.3" x2="-301.8" y2="545.7" stroke="#c3bcae" stroke-width="1.0"/>
<line x1="-301.8" y1="545.7" x2="-334.3" y2="469.3" stroke="#c3bcae" stroke-width="1.0"/>
<line x1="-334.3" y1="469.3" x2="-356.6" y2="389.3" stroke="#c3bcae" stroke-width="1.0"/>
<line x1="-799.1" y1="815.6" x2="-1257.0" y2="375.9" stroke="#8a8378" stroke-width="1.4"/>
<line x1="-1257.0" y1="375.9" x2="-1310.5" y2="439.4" stroke="#c3bcae" stroke-width="1.0"/>
<line x1="-1310.5" y1="439.4" x2="-1355.2" y2="509.4" stroke="#c3bcae" stroke-width="1.0"/>
<line x1="-1355.2" y1="509.4" x2="-1390.4" y2="584.6" stroke="#c3bcae" stroke-width="1.0"/>
<line x1="-1390.4" y1="584.6" x2="-1415.5" y2="663.8" stroke="#c3bcae" stroke-width="1.0"/>
<line x1="-1415.5" y1="663.8" x2="-1430.0" y2="745.5" stroke="#c3bcae" stroke-width="1.0"/>
<line x1="-1430.0" y1="745.5" x2="-1433.8" y2="828.5" stroke="#c3bcae" stroke-width="1.0"/>
<line x1="-1433.8" y1="828.5" x2="-1426.7" y2="911.2" stroke="#c3bcae" stroke-width="1.0"/>
<line x1="-1426.7" y1="911.2" x2="-1408.8" y2="992.3" stroke="#c3bcae" stroke-width="1.0"/>
<line x1="-1408.8" y1="992.3" x2="-1380.5" y2="1070.4" stroke="#c3bcae" stroke-width="1.0"/>
<line x1="-1380.5" y1="1070.4" x2="-1342.3" y2="1144.1" stroke="#c3bcae" stroke-width="1.0"/>
<line x1="-1342.3" y1="1144.1" x2="-1294.8" y2="1212.2" stroke="#c3bcae" stroke-width="1.0"/>
<line x1="-1294.8" y1="1212.2" x2="-1238.8" y2="1273.5" stroke="#c3bcae" stroke-width="1.0"/>
<polygon points="3329.2,229.5 3329.2,304.2 3422.6,304.2 3422.6,229.5" fill="#2b2825" stroke="none" stroke-width="1.0"/>
<polygon points="3329.2,2322.1 3329.2,2396.8 3422.6,2396.8 3422.6,2322.1" fill="#2b2825" stroke="none" stroke-width="1.0"/>
<line x1="3375.9" y1="304.2" x2="3375.9" y2="2322.1" stroke="#b0a897" stroke-width="1.4" stroke-dasharray="7 9"/>
<line x1="3456.2" y1="304.2" x2="3456.2" y2="2322.1" stroke="#8a8378" stroke-width="2.6"/>
<polygon points="2284.7,4205.5 2284.7,3069.5 2285.5,3039.2 2287.7,3009.0 2291.4,2979.0 2296.6,2949.2 2303.2,2919.7 2311.3,2890.4 2320.8,2861.7 2331.7,2833.5 2343.9,2805.9 2357.6,2778.8 2372.4,2752.5 2388.6,2727.0 2406.1,2702.2 2424.7,2678.3 2444.4,2655.4 2465.3,2633.5 2487.3,2612.6 2510.1,2592.9 2534.0,2574.2 2558.8,2556.8 2584.3,2540.6 2610.6,2525.7 2637.7,2512.1 2665.4,2499.8 2693.6,2488.9 2722.3,2479.5 2751.5,2471.4 2781.1,2464.7 2810.8,2459.5 2840.9,2455.8 2871.0,2453.7 2901.3,2452.9 3868.8,2453.3 3878.1,2454.1 3889.8,2455.5 3901.5,2457.6 3913.3,2460.2 3924.7,2463.3 3936.1,2467.1 3947.2,2471.3 3958.0,2476.2 3968.7,2481.5 3979.0,2487.4 3989.2,2493.9 3999.0,2500.7 4008.3,2508.0 4017.2,2515.7 4025.9,2524.1 4034.3,2532.8 4042.0,2541.7 4049.3,2551.0 4056.1,2560.8 4062.6,2571.0 4068.5,2581.3 4073.8,2592.0 4078.7,2602.8 4082.9,2613.9 4086.7,2625.3 4089.8,2636.7 4092.4,2648.5 4094.5,2660.2 4095.9,2671.9 4096.8,2683.9 4097.1,2695.8 4097.1,4007.6 4209.2,4007.6 4209.2,2695.8 4208.8,2678.4 4207.5,2661.1 4205.4,2643.6 4202.4,2626.5 4198.6,2609.6 4193.9,2592.8 4188.5,2576.2 4182.2,2559.9 4175.1,2544.0 4167.3,2528.4 4158.7,2513.2 4149.4,2498.6 4139.4,2484.3 4128.6,2470.5 4117.2,2457.3 4105.2,2444.8 4092.7,2432.8 4079.5,2421.4 4065.7,2410.6 4051.4,2400.6 4036.8,2391.3 4021.6,2382.7 4006.0,2374.9 3990.1,2367.8 3973.8,2361.5 3957.2,2356.1 3940.4,2351.4 3923.5,2347.6 3906.4,2344.6 3888.9,2342.5 3868.9,2341.2 2901.3,2340.8 2865.6,2341.7 2829.9,2344.3 2794.3,2348.6 2759.1,2354.8 2724.2,2362.7 2689.8,2372.2 2655.8,2383.4 2622.5,2396.3 2589.8,2410.7 2557.8,2426.8 2526.7,2444.4 2496.5,2463.6 2467.3,2484.2 2439.0,2506.2 2412.0,2529.5 2386.1,2554.2 2361.4,2580.1 2338.0,2607.2 2316.0,2635.4 2295.5,2664.6 2276.3,2694.8 2258.7,2726.0 2242.6,2757.9 2228.1,2790.6 2215.2,2824.0 2204.0,2857.9 2194.5,2892.4 2186.6,2927.3 2180.5,2962.5 2176.1,2998.1 2173.5,3033.7 2172.6,3069.4 2172.6,4205.5" fill="#2b2825" stroke="none" stroke-width="1.0"/>
<polygon points="4097.1,4605.5 4097.1,4661.4 4209.2,4661.4 4209.2,4605.5" fill="#2b2825" stroke="none" stroke-width="1.0"/>
<line x1="4153.2" y1="4007.6" x2="4751.1" y2="4007.6" stroke="#8a8378" stroke-width="1.4"/>
<line x1="4751.1" y1="4007.6" x2="4745.9" y2="4085.6" stroke="#c3bcae" stroke-width="1.0"/>
<line x1="4745.9" y1="4085.6" x2="4730.7" y2="4162.3" stroke="#c3bcae" stroke-width="1.0"/>
<line x1="4730.7" y1="4162.3" x2="4705.5" y2="4236.4" stroke="#c3bcae" stroke-width="1.0"/>
<line x1="4705.5" y1="4236.4" x2="4670.9" y2="4306.5" stroke="#c3bcae" stroke-width="1.0"/>
<line x1="4670.9" y1="4306.5" x2="4627.5" y2="4371.5" stroke="#c3bcae" stroke-width="1.0"/>
<line x1="4627.5" y1="4371.5" x2="4575.9" y2="4430.3" stroke="#c3bcae" stroke-width="1.0"/>
<line x1="4575.9" y1="4430.3" x2="4517.1" y2="4481.9" stroke="#c3bcae" stroke-width="1.0"/>
<line x1="4517.1" y1="4481.9" x2="4452.1" y2="4525.4" stroke="#c3bcae" stroke-width="1.0"/>
<line x1="4452.1" y1="4525.4" x2="4382.0" y2="4559.9" stroke="#c3bcae" stroke-width="1.0"/>
<line x1="4382.0" y1="4559.9" x2="4307.9" y2="4585.1" stroke="#c3bcae" stroke-width="1.0"/>
<line x1="4307.9" y1="4585.1" x2="4231.2" y2="4600.3" stroke="#c3bcae" stroke-width="1.0"/>
<line x1="4231.2" y1="4600.3" x2="4153.2" y2="4605.5" stroke="#c3bcae" stroke-width="1.0"/>
<polygon points="-1297.0,5554.5 -1297.0,5741.3 -1203.6,5741.3 -1203.6,5554.5" fill="#2b2825" stroke="none" stroke-width="1.0"/>
<polygon points="-1297.0,6376.6 -1297.0,6578.4 -1203.6,6578.4 -1203.6,6376.6" fill="#2b2825" stroke="none" stroke-width="1.0"/>
<line x1="-1250.3" y1="5741.3" x2="-1250.3" y2="6376.6" stroke="#b0a897" stroke-width="1.4" stroke-dasharray="7 9"/>
<line x1="-125.5" y1="6578.4" x2="2228.7" y2="6578.4" stroke="#b9b2a4" stroke-width="1.2" stroke-dasharray="10 12"/>
<line x1="-2849.7" y1="-1751.1" x2="-630.0" y2="-1751.1" stroke="#2e8b9a" stroke-width="3.0"/>
<line x1="3402.1" y1="-1751.1" x2="5662.8" y2="-1751.1" stroke="#2e8b9a" stroke-width="3.0"/>
<line x1="-2849.7" y1="-1706.2" x2="-630.0" y2="-1706.2" stroke="#2e8b9a" stroke-width="3.0"/>
<line x1="3402.1" y1="-1706.2" x2="5662.8" y2="-1706.2" stroke="#2e8b9a" stroke-width="3.0"/>
<line x1="-2849.7" y1="-1683.8" x2="-630.0" y2="-1683.8" stroke="#2e8b9a" stroke-width="3.0"/>
<line x1="3402.1" y1="-1683.8" x2="5662.8" y2="-1683.8" stroke="#2e8b9a" stroke-width="3.0"/>
<line x1="-2849.7" y1="-1638.9" x2="-630.0" y2="-1638.9" stroke="#2e8b9a" stroke-width="3.0"/>
<line x1="3402.1" y1="-1638.9" x2="5662.8" y2="-1638.9" stroke="#2e8b9a" stroke-width="3.0"/>
<line x1="-304.9" y1="-1287.7" x2="255.6" y2="-1287.7" stroke="#2e8b9a" stroke-width="3.0"/>
<line x1="853.5" y1="-1287.7" x2="1899.8" y2="-1287.7" stroke="#2e8b9a" stroke-width="3.0"/>
<line x1="2497.7" y1="-1287.7" x2="3058.3" y2="-1287.7" stroke="#2e8b9a" stroke-width="3.0"/>
<line x1="-304.9" y1="-1242.8" x2="255.6" y2="-1242.8" stroke="#2e8b9a" stroke-width="3.0"/>
<line x1="853.5" y1="-1242.8" x2="1899.8" y2="-1242.8" stroke="#2e8b9a" stroke-width="3.0"/>
<line x1="2497.7" y1="-1242.8" x2="3058.3" y2="-1242.8" stroke="#2e8b9a" stroke-width="3.0"/>
<line x1="-304.9" y1="-1220.4" x2="255.6" y2="-1220.4" stroke="#2e8b9a" stroke-width="3.0"/>
<line x1="853.5" y1="-1220.4" x2="1899.8" y2="-1220.4" stroke="#2e8b9a" stroke-width="3.0"/>
<line x1="2497.7" y1="-1220.4" x2="3058.3" y2="-1220.4" stroke="#2e8b9a" stroke-width="3.0"/>
<line x1="-304.9" y1="-1175.6" x2="255.6" y2="-1175.6" stroke="#2e8b9a" stroke-width="3.0"/>
<line x1="853.5" y1="-1175.6" x2="1899.8" y2="-1175.6" stroke="#2e8b9a" stroke-width="3.0"/>
<line x1="2497.7" y1="-1175.6" x2="3058.3" y2="-1175.6" stroke="#2e8b9a" stroke-width="3.0"/>
<line x1="2497.7" y1="4149.4" x2="3058.3" y2="4149.4" stroke="#2e8b9a" stroke-width="3.0"/>
<line x1="2497.7" y1="4194.3" x2="3058.3" y2="4194.3" stroke="#2e8b9a" stroke-width="3.0"/>
<line x1="2497.7" y1="4216.7" x2="3058.3" y2="4216.7" stroke="#2e8b9a" stroke-width="3.0"/>
<line x1="3461.8" y1="4605.3" x2="5662.8" y2="4605.3" stroke="#2e8b9a" stroke-width="3.0"/>
<line x1="3461.8" y1="4650.2" x2="5662.8" y2="4650.2" stroke="#2e8b9a" stroke-width="3.0"/>
<line x1="3461.8" y1="4672.6" x2="5662.8" y2="4672.6" stroke="#2e8b9a" stroke-width="3.0"/>
<line x1="-1194.3" y1="6522.3" x2="-297.4" y2="6522.3" stroke="#2e8b9a" stroke-width="3.0"/>
<line x1="-5.9" y1="6522.3" x2="2112.8" y2="6522.3" stroke="#2e8b9a" stroke-width="3.0"/>
<line x1="-1194.3" y1="6567.2" x2="-297.4" y2="6567.2" stroke="#2e8b9a" stroke-width="3.0"/>
<line x1="-5.9" y1="6567.2" x2="2112.8" y2="6567.2" stroke="#2e8b9a" stroke-width="3.0"/>
<line x1="-1194.3" y1="6589.6" x2="-297.4" y2="6589.6" stroke="#2e8b9a" stroke-width="3.0"/>
<line x1="-5.9" y1="6589.6" x2="2112.8" y2="6589.6" stroke="#2e8b9a" stroke-width="3.0"/>
<line x1="-5.9" y1="6634.4" x2="2112.8" y2="6634.4" stroke="#2e8b9a" stroke-width="3.0"/>
</g>
<g id="L-labels">
<text x="1832.6" y="-585.2" font-family="Helvetica,Arial" font-size="33.5967" fill="#1d1b18" font-weight="bold" letter-spacing="2.46376" text-anchor="middle">KITCHEN</text>
<text x="1832.6" y="-286.2" font-family="Helvetica,Arial" font-size="20.158" fill="#6f6a61" font-weight="normal" letter-spacing="0" text-anchor="middle">a U with 900 corners: 3915 clear across the top, 1955 down each side, </text>
<text x="378.9" y="3899.1" font-family="Helvetica,Arial" font-size="33.5967" fill="#1d1b18" font-weight="bold" letter-spacing="2.46376" text-anchor="middle">LIVING / DINING</text>
<text x="378.9" y="4198.0" font-family="Helvetica,Arial" font-size="20.158" fill="#6f6a61" font-weight="normal" letter-spacing="0" text-anchor="middle">everything the kitchen does not enclose, from the front door to the ba</text>
<text x="-1863.2" y="-62.0" font-family="Helvetica,Arial" font-size="33.5967" fill="#1d1b18" font-weight="bold" letter-spacing="2.46376" text-anchor="middle">BEDROOM</text>
<text x="-1863.2" y="236.9" font-family="Helvetica,Arial" font-size="20.158" fill="#6f6a61" font-weight="normal" letter-spacing="0" text-anchor="middle">the flat's north-west arm, closed off: 3050 (10'-0") wide, windows nor</text>
<text x="-106.8" y="-585.2" font-family="Helvetica,Arial" font-size="33.5967" fill="#1d1b18" font-weight="bold" letter-spacing="2.46376" text-anchor="middle">BATH</text>
<text x="-106.8" y="-286.2" font-family="Helvetica,Arial" font-size="20.158" fill="#6f6a61" font-weight="normal" letter-spacing="0" text-anchor="middle">1180 (3'-10") wide against the north wall, where the drainage is — rea</text>
<text x="3069.5" y="2852.7" font-family="Helvetica,Arial" font-size="33.5967" fill="#1d1b18" font-weight="bold" letter-spacing="2.46376" text-anchor="middle">BATH</text>
<text x="3069.5" y="2979.8" font-family="Helvetica,Arial" font-size="22.3978" fill="#2c5c61" font-weight="normal" letter-spacing="4.47956" text-anchor="middle">COMMON</text>
<text x="3069.5" y="3211.5" font-family="Helvetica,Arial" font-size="20.158" fill="#6f6a61" font-weight="normal" letter-spacing="0" text-anchor="middle">2425 (7'-11") wide, with column 4 taken inside it as the shower's east</text>
<text x="4638.9" y="685.4" font-family="Helvetica,Arial" font-size="33.5967" fill="#1d1b18" font-weight="bold" letter-spacing="2.46376" text-anchor="middle">ROOM</text>
<text x="4638.9" y="984.3" font-family="Helvetica,Arial" font-size="20.158" fill="#6f6a61" font-weight="normal" letter-spacing="0" text-anchor="middle">the east arm: 3025 (9'-11") wide, windows north and south, the party w</text>
<text x="-1881.8" y="5991.7" font-family="Helvetica,Arial" font-size="33.5967" fill="#1d1b18" font-weight="bold" letter-spacing="2.46376" text-anchor="middle">FOYER</text>
<text x="-1881.8" y="6290.6" font-family="Helvetica,Arial" font-size="20.158" fill="#6f6a61" font-weight="normal" letter-spacing="0" text-anchor="middle">the way in</text>
<text x="1051.6" y="7038.0" font-family="Helvetica,Arial" font-size="33.5967" fill="#1d1b18" font-weight="bold" letter-spacing="2.46376" text-anchor="middle">BALCONY</text>
<text x="1051.6" y="7336.9" font-family="Helvetica,Arial" font-size="20.158" fill="#6f6a61" font-weight="normal" letter-spacing="0" text-anchor="middle">off the living room</text>
</g>
<g id="L-title">
</g></svg>